HIERARCHY
ROOT root
{
	OFFSET 0.000000 0.000000 0.000000
	CHANNELS 6 Xposition Yposition Zposition Zrotation Yrotation Xrotation
	JOINT lhip
	{
		OFFSET 0.058581 -0.082280 -0.017664
		CHANNELS 3 Zrotation Yrotation Xrotation
		JOINT lknee
		{
			OFFSET 0.043451 -0.386469 0.008037
			CHANNELS 3 Zrotation Yrotation Xrotation
			JOINT lankle
			{
				OFFSET -0.014790 -0.426874 -0.037428
				CHANNELS 3 Zrotation Yrotation Xrotation
				JOINT ltoe
				{
					OFFSET 0.041054 -0.060286 0.122042
					CHANNELS 3 Zrotation Yrotation Xrotation
					End Site
					{
						OFFSET 0.000000 0.000000 0.000000
					}
				}
			}
		}
	}
	JOINT rhip
	{
		OFFSET -0.060310 -0.090513 -0.013543
		CHANNELS 3 Zrotation Yrotation Xrotation
		JOINT rknee
		{
			OFFSET -0.043257 -0.383688 -0.004843
			CHANNELS 3 Zrotation Yrotation Xrotation
			JOINT rankle
			{
				OFFSET 0.019056 -0.420046 -0.034562
				CHANNELS 3 Zrotation Yrotation Xrotation
				JOINT rtoe
				{
					OFFSET -0.034840 -0.062106 0.130323
					CHANNELS 3 Zrotation Yrotation Xrotation
					End Site
					{
						OFFSET 0.000000 0.000000 0.000000
					}
				}
			}
		}
	}
	JOINT lowerback
	{
		OFFSET 0.004439 0.124404 -0.038385
		CHANNELS 3 Zrotation Yrotation Xrotation
		JOINT upperback
		{
			OFFSET 0.004488 0.137956 0.026820
			CHANNELS 3 Zrotation Yrotation Xrotation
			JOINT chest
			{
				OFFSET -0.002265 0.056032 0.002855
				CHANNELS 3 Zrotation Yrotation Xrotation
				JOINT lowerneck
				{
					OFFSET -0.013390 0.211636 -0.033468
					CHANNELS 3 Zrotation Yrotation Xrotation
					JOINT upperneck
					{
						OFFSET 0.010113 0.088937 0.050410
						CHANNELS 3 Zrotation Yrotation Xrotation
						End Site
						{
							OFFSET 0.000000 0.000000 0.000000
						}
					}
				}
				JOINT lclavicle
				{
					OFFSET 0.071702 0.114000 -0.018898
					CHANNELS 3 Zrotation Yrotation Xrotation
					JOINT lshoulder
					{
						OFFSET 0.122921 0.045205 -0.019046
						CHANNELS 3 Zrotation Yrotation Xrotation
						JOINT lelbow
						{
							OFFSET 0.255332 -0.015649 -0.022946
							CHANNELS 3 Zrotation Yrotation Xrotation
							JOINT lwrist
							{
								OFFSET 0.265709 0.012698 -0.007375
								CHANNELS 3 Zrotation Yrotation Xrotation
								End Site
								{
									OFFSET 0.000000 0.000000 0.000000
								}
							}
						}
					}
				}
				JOINT rclavicle
				{
					OFFSET -0.082954 0.112472 -0.023707
					CHANNELS 3 Zrotation Yrotation Xrotation
					JOINT rshoulder
					{
						OFFSET -0.113228 0.046853 -0.008472
						CHANNELS 3 Zrotation Yrotation Xrotation
						JOINT relbow
						{
							OFFSET -0.260127 -0.014369 -0.031269
							CHANNELS 3 Zrotation Yrotation Xrotation
							JOINT rwrist
							{
								OFFSET -0.269108 0.006794 -0.006027
								CHANNELS 3 Zrotation Yrotation Xrotation
								End Site
								{
									OFFSET 0.000000 0.000000 0.000000
								}
							}
						}
					}
				}
			}
		}
	}
}
MOTION
Frames: 13
Frame Time: 0.033333
1.151344 0.213282 0.996394 -95.618439 11.775397 82.769444 11.588465 1.823213 4.422286 -3.893324 -14.900390 15.541640 5.606100 11.490209 -22.206308 0.000000 -0.000000 0.000000 -6.051546 -1.761717 -10.216154 1.700516 -6.429397 25.699183 6.089092 -10.585029 -5.762034 0.000000 -0.000000 0.000000 -6.208106 -0.156065 14.624696 4.371059 -4.009230 5.208426 2.601400 -5.306176 6.299564 8.595852 -15.778905 8.976301 3.520777 -17.726301 12.443572 -21.811114 8.641456 7.225345 -52.227590 -9.936909 3.770332 10.237963 -32.585741 1.761740 -2.154567 0.234880 -11.618511 24.495284 -5.932081 -1.034786 60.957702 -1.036064 10.210821 -13.041897 28.240014 -4.187014 5.336005 -1.292430 -6.175968 
1.147951 0.222930 0.995499 -95.214266 12.733497 82.708143 13.189502 1.653685 3.993677 -3.993589 -15.274537 16.987116 5.789690 11.493871 -23.104274 0.000000 -0.000000 0.000000 -8.138604 -2.783965 -10.300165 1.746264 -5.535634 22.802855 6.411407 -10.263468 -1.065820 0.000000 -0.000000 0.000000 -6.413535 0.292770 14.496237 4.544387 -4.060445 5.158773 2.935944 -5.519122 6.146971 8.491906 -16.414035 9.380388 4.095353 -17.599240 12.453416 -21.357143 8.967321 7.738909 -51.248284 -10.165486 3.310206 10.209418 -32.903992 1.814104 -2.175518 -0.041518 -12.430663 24.565481 -6.641667 -0.677786 60.613526 -1.443958 10.296218 -12.879159 28.662104 -4.215158 5.256324 -1.369099 -6.476068 
1.143985 0.234160 0.994388 -94.938075 13.712166 82.663103 15.011480 1.750796 3.642715 -4.139811 -15.575459 18.337707 5.676421 11.492931 -24.131642 0.000000 -0.000000 0.000000 -10.086752 -4.099422 -10.137483 2.245154 -4.426483 19.630250 7.265526 -9.401230 2.172764 0.000000 -0.000000 0.000000 -6.760035 0.717363 14.155708 4.698985 -4.227655 5.138595 3.254990 -5.534146 5.962413 8.480470 -16.739527 10.010371 4.449739 -17.670893 12.585944 -20.914259 9.492555 7.974143 -50.091995 -10.453353 2.752700 9.823095 -33.015304 1.781176 -1.948233 0.069285 -12.625403 24.724163 -7.126884 -0.532909 60.471085 -1.422301 10.097379 -12.496098 27.913851 -4.038641 4.998230 -1.635480 -5.873963 
1.138076 0.246868 0.993627 -94.994410 14.547255 81.703601 16.814758 2.445722 4.461352 -4.340433 -16.986872 19.793204 3.170211 11.521170 -26.389905 0.000000 -0.000000 0.000000 -11.580650 -4.924752 -8.975711 2.121612 -3.167922 16.632689 8.754923 -8.493413 4.478174 0.000000 -0.000000 0.000000 -7.389499 1.740840 13.655886 5.542598 -5.034032 7.224609 2.956803 -5.041644 4.948801 9.174709 -15.162998 10.784504 5.942300 -19.148497 11.141690 -20.425396 9.605442 7.443446 -48.306381 -10.331616 2.954837 7.910825 -32.814313 2.678608 2.661042 -0.937889 -15.464085 25.049428 -8.028735 -1.250103 60.963544 -1.693312 10.198302 -12.769435 27.169276 -3.454760 3.449820 -1.022485 -5.120452 
1.138633 0.260184 0.990579 -92.598781 15.784059 83.436907 18.823462 0.793137 0.934704 -5.098895 -17.201774 22.690045 3.307807 11.641451 -27.452247 0.000000 -0.000000 0.000000 -12.825857 -5.544238 -9.726612 2.336834 -3.636217 13.976518 9.589814 -9.448452 7.719851 0.000000 -0.000000 0.000000 -7.486585 1.096483 13.658044 5.840480 -5.725641 5.226963 3.036467 -5.462423 5.620351 9.651317 -15.311325 10.181365 6.145743 -19.494787 11.830196 -19.656681 10.518615 7.676769 -47.148724 -11.415321 2.440837 7.155485 -32.688829 3.154946 2.722806 -1.463633 -15.689480 25.071158 -9.228678 -1.624103 61.257005 -1.985374 10.792353 -12.657637 27.016574 -3.317052 2.955057 -0.798320 -5.458204 
1.072375 0.258333 0.979714 -106.880174 19.022485 73.290041 27.223638 13.833963 23.366484 0.493397 -17.571055 11.193529 5.544505 9.433526 -31.605920 0.000000 -0.000000 0.000000 -13.368081 -9.130739 -2.619698 6.634449 4.421619 11.333586 13.560708 -0.603080 10.249783 0.000000 -0.000000 0.000000 6.493249 5.195028 1.202185 3.032633 -4.217104 19.401399 -5.094949 -1.723563 8.658586 7.551426 -17.351141 12.616495 6.656587 -18.576705 10.588236 -22.254441 9.179240 5.993103 -45.170938 -10.303069 2.832351 8.275543 -31.081858 -3.238444 1.676173 -1.682843 -7.591196 24.495264 -9.532733 -2.185903 59.570333 -3.620806 7.407582 -10.927903 27.249585 -6.803390 7.763307 -1.251673 0.421095 
1.077459 0.271555 0.969909 -102.790669 19.552083 75.185591 27.210496 12.077840 17.829575 0.049111 -18.883924 15.770621 3.927985 9.331403 -31.660614 0.000000 -0.000000 0.000000 -15.421019 -10.144331 -3.541995 7.044282 2.636961 10.341313 14.866741 -1.582267 11.978900 0.000000 -0.000000 0.000000 5.403011 4.900739 4.508547 2.734874 -5.625312 13.889024 -4.514696 -2.586319 9.470166 7.899702 -17.151269 11.722890 7.055438 -18.915047 11.745516 -21.462843 9.410793 6.405328 -43.527700 -11.806700 1.940623 6.515824 -29.944974 -3.212839 3.163484 -3.273201 -5.855818 25.115622 -10.625658 -3.281432 58.693755 -4.103774 7.508498 -9.025587 26.550829 -6.807806 4.725250 -0.301213 1.504056 
1.089401 0.288231 0.962453 -94.902352 20.804170 84.525470 27.113656 7.509039 1.521400 -2.216629 -16.045532 24.446854 4.439527 7.413871 -32.149200 0.000000 -0.000000 0.000000 -14.824335 -11.627377 -9.797100 6.546954 -1.487868 9.634549 13.857751 -4.923144 13.897783 0.000000 -0.000000 0.000000 2.652541 3.971766 -1.091246 4.004925 -9.268647 11.196643 -3.953268 -4.065490 9.659072 7.754089 -17.119824 12.396899 7.483800 -19.064551 11.594448 -20.419154 10.395014 7.964573 -43.165281 -13.685730 2.475772 7.584959 -29.814516 -2.114597 2.075268 -3.052172 -7.769088 24.970129 -12.759276 -2.440481 59.298642 -3.154638 8.939950 -9.613542 26.455370 -4.180794 5.758049 -0.417705 -1.774278 
1.088441 0.308646 0.961326 -93.867284 19.962451 84.048564 28.036958 6.856936 1.166186 -3.122678 -17.154108 25.704245 3.580162 7.647520 -32.127802 0.000000 -0.000000 0.000000 -16.038600 -12.500068 -9.313027 6.268359 -1.686932 9.773907 14.352173 -5.596342 15.997395 0.000000 -0.000000 0.000000 -0.725843 3.723043 0.554947 4.097216 -9.168458 10.834284 -2.747119 -4.413314 9.157583 7.908709 -16.184342 12.607974 7.591327 -19.318306 12.238709 -19.327860 10.440947 8.124006 -42.170665 -13.607332 1.818410 7.151703 -30.218812 -0.713909 2.258211 -3.089646 -8.979611 24.946988 -12.907184 -2.099116 59.901830 -3.662438 9.050141 -9.795954 26.463250 -3.323514 6.213329 -0.439155 -2.724121 
1.090717 0.331436 0.959240 -91.331886 19.465312 85.547090 28.761312 5.437669 -1.944889 -3.999432 -18.245815 27.887796 2.735975 8.069838 -32.067347 0.000000 -0.000000 0.000000 -16.412464 -13.158022 -9.882919 6.008838 -2.294049 9.501736 14.509332 -6.795706 17.634036 0.000000 -0.000000 0.000000 -3.635005 3.051163 2.584650 4.476824 -9.397379 8.378263 -1.476359 -5.207828 8.396827 7.850587 -15.777092 13.257193 8.021586 -19.148569 12.567684 -18.512964 10.916227 8.827668 -40.928748 -13.685035 1.152992 6.295351 -30.786031 0.834301 2.912680 -3.025459 -10.210544 24.865736 -13.618087 -1.687790 59.885001 -4.756952 9.125587 -9.128467 26.541213 -2.059862 5.727837 0.004966 -4.010938 
1.088146 0.354435 0.957071 -90.086996 18.689937 85.376129 29.313104 4.156244 -1.728592 -4.136310 -19.729959 28.051740 1.991281 8.987382 -32.502310 0.000000 -0.000000 0.000000 -17.077325 -12.570722 -8.741358 5.842407 -2.122689 8.593288 15.515249 -7.048702 19.779444 0.000000 -0.000000 0.000000 -6.143500 3.008732 4.391223 4.622898 -9.305820 7.891238 -0.429156 -5.601281 7.643301 7.967280 -15.321268 13.683041 8.546007 -19.338902 12.463085 -17.760750 10.793446 9.031793 -39.992844 -13.445786 0.705856 5.754537 -31.606292 2.042120 3.414938 -3.069260 -10.418150 24.561043 -13.897051 -1.377994 60.234462 -5.937814 9.024658 -8.643460 26.861536 -0.799204 5.538705 -0.156428 -4.818989 
1.087203 0.379459 0.954249 -89.321370 17.796557 85.127324 29.639007 2.837042 -1.085360 -3.937724 -21.313526 27.691890 1.266526 10.228788 -32.419905 0.000000 -0.000000 0.000000 -17.120695 -12.278283 -8.679534 5.401779 -0.604765 9.089659 16.336707 -7.107558 21.599320 0.000000 -0.000000 0.000000 -8.483235 2.958640 6.625787 4.763651 -8.715741 7.321089 0.763261 -5.743079 6.895200 8.265225 -14.695650 13.570058 8.895250 -19.128914 12.100033 -17.205922 10.691751 8.626415 -38.775363 -13.367652 0.475799 4.530439 -32.543250 3.054884 3.872878 -2.986904 -11.536062 24.440255 -13.913672 -1.275999 60.302380 -6.754580 9.109117 -8.194615 26.632379 -0.407937 5.281361 -0.194999 -5.039974 
1.085389 0.405132 0.949731 -88.161715 16.598748 85.110147 30.002490 1.389086 -0.513404 -4.018787 -22.267251 26.866086 0.552718 10.928380 -32.132610 0.000000 -0.000000 0.000000 -17.321732 -11.476552 -8.295742 4.842114 0.642713 9.297420 17.080934 -7.139398 22.549517 0.000000 -0.000000 0.000000 -10.544915 2.989888 8.802758 4.988099 -8.250087 7.054528 2.046254 -6.111234 6.005005 8.492140 -14.264878 13.374476 8.829050 -19.153100 11.759915 -17.047943 10.341345 8.659236 -37.985307 -13.085500 0.363235 4.292603 -33.878740 3.337239 4.423065 -3.357879 -12.978551 24.404480 -13.265645 -0.841998 59.879835 -7.242713 9.425910 -7.927144 26.465783 -0.050228 4.831791 -0.256140 -5.137952 
